<svg width="97" height="97" xmlns="http://www.w3.org/2000/svg" xmlns:xlink="http://www.w3.org/1999/xlink" overflow="hidden"><defs><clipPath id="clip0"><rect x="33" y="95" width="97" height="97"/></clipPath><clipPath id="clip1"><rect x="34" y="96" width="96" height="96"/></clipPath><clipPath id="clip2"><rect x="34" y="96" width="96" height="96"/></clipPath><clipPath id="clip3"><rect x="34" y="96" width="96" height="96"/></clipPath></defs><g clip-path="url(#clip0)" transform="translate(-33 -95)"><g clip-path="url(#clip1)"><g clip-path="url(#clip2)"><g clip-path="url(#clip3)"><path d="M72 112 77 112 77 116 72 116Z"/><path d="M60 136 65 136 65 140 60 140Z"/><path d="M48 160 53 160 53 164 48 164Z"/><path d="M72 160 77 160 77 164 72 164Z"/><path d="M96 160 101 160 101 164 96 164Z"/><path d="M93 116.073C92.2939 116.495 91.6249 116.975 91 117.51L91 131 86.163 131C86.2796 131.678 86.4443 132.346 86.656 133L103 133 103 142.759C103.678 142.637 104.346 142.468 105 142.251L105 131 93 131Z"/><path d="M115 168.705 115 179 93 179 93 157 108.011 157 107.605 156.317C107.358 155.9 107.155 155.459 107 155L105 155 105 150.533C104.344 150.669 103.676 150.772 103 150.849L103 155 81 155 81 139.821C80.1815 138.424 79.5169 136.942 79.018 135.401 79.008 135.37 79 135.371 79 135.401L79 155 57 155 57 133 78.385 133C78.251 132.344 78.149 131.676 78.074 131L69 131 69 109 89.229 109C90.4295 108.307 91.6919 107.726 93 107.267L93 107 67 107 67 131 55 131 55 155 43 155 43 181 117 181 117 170.718C116.204 170.189 115.524 169.504 115 168.705ZM67 179 45 179 45 157 67 157ZM91 179 69 179 69 157 91 157Z"/><path d="M126.428 161.549 119.21 149.419C117.899 147.48 115.382 146.767 113.249 147.731L111.393 144.616C120.222 138.574 122.482 126.518 116.44 117.689 110.397 108.859 98.3416 106.6 89.5122 112.642 80.6829 118.684 78.4235 130.74 84.4657 139.569 90.0711 147.76 100.961 150.39 109.686 145.659L111.528 148.75C110.773 149.381 110.201 150.203 109.872 151.13 109.423 152.333 109.537 153.673 110.183 154.783L117.4 166.914C118.243 168.256 119.734 169.05 121.318 169 122.354 168.994 123.369 168.709 124.257 168.175 125.409 167.507 126.288 166.453 126.738 165.2 127.186 163.998 127.073 162.658 126.428 161.549ZM83.022 130.292C82.0333 120.678 89.0257 112.082 98.64 111.094 108.254 110.105 116.85 117.097 117.838 126.712 118.827 136.326 111.835 144.921 102.22 145.91 101.03 146.032 99.8303 146.032 98.64 145.91 90.3948 145.054 83.8776 138.537 83.022 130.292ZM124.849 164.546C124.552 165.351 123.98 166.026 123.235 166.452 121.693 167.367 119.847 167.115 119.119 165.891L111.9 153.761C111.561 153.157 111.509 152.432 111.76 151.786 112.057 150.981 112.628 150.307 113.373 149.881 113.956 149.528 114.624 149.337 115.306 149.33 116.18 149.286 117.011 149.709 117.49 150.441L124.707 162.572C125.047 163.176 125.099 163.9 124.849 164.546Z"/></g></g></g></g></svg>